<svg width="25" height="25" viewBox="0 0 25 25" fill="none" xmlns="http://www.w3.org/2000/svg">
<path d="M14.2559 16.7309H13.5059C13.1081 16.7309 12.7265 16.5729 12.4452 16.2916C12.1639 16.0103 12.0059 15.6287 12.0059 15.2309V11.4809C12.0059 11.282 11.9269 11.0912 11.7862 10.9506C11.6456 10.8099 11.4548 10.7309 11.2559 10.7309H10.5059" stroke="white" stroke-width="1.5" stroke-linecap="round" stroke-linejoin="round"/>
<path d="M11.6309 7.7309C11.4238 7.7309 11.2559 7.56301 11.2559 7.3559C11.2559 7.14879 11.4238 6.9809 11.6309 6.9809" stroke="white" stroke-width="1.5"/>
<path d="M11.6309 7.7309C11.838 7.7309 12.0059 7.56301 12.0059 7.3559C12.0059 7.14879 11.838 6.9809 11.6309 6.9809" stroke="white" stroke-width="1.5"/>
<path d="M12.0059 23.4809C18.2191 23.4809 23.2559 18.4441 23.2559 12.2309C23.2559 6.0177 18.2191 0.980896 12.0059 0.980896C5.79266 0.980896 0.755859 6.0177 0.755859 12.2309C0.755859 18.4441 5.79266 23.4809 12.0059 23.4809Z" stroke="white" stroke-width="1.5" stroke-linecap="round" stroke-linejoin="round"/>
</svg>
